Coordinates
version=1
nRows=14
nColumns=40
inDegrees=yes

Units are S.I. units (second, meters, Newtons, ...)
If the header above contains a line with 'inDegrees', this indicates whether rotational values are in degrees (yes) or radians (no).

endheader
time	pelvis_tilt	pelvis_list	pelvis_rotation	pelvis_tx	pelvis_ty	pelvis_tz	hip_flexion_r	hip_adduction_r	hip_rotation_r	knee_angle_r	knee_angle_r_beta	ankle_angle_r	subtalar_angle_r	mtp_angle_r	hip_flexion_l	hip_adduction_l	hip_rotation_l	knee_angle_l	knee_angle_l_beta	ankle_angle_l	subtalar_angle_l	mtp_angle_l	lumbar_extension	lumbar_bending	lumbar_rotation	arm_flex_r	arm_add_r	arm_rot_r	elbow_flex_r	pro_sup_r	wrist_flex_r	wrist_dev_r	arm_flex_l	arm_add_l	arm_rot_l	elbow_flex_l	pro_sup_l	wrist_flex_l	wrist_dev_l
      0.89000000	      0.39792176	      9.43974380	     -2.32532838	      0.61427792	      0.93906576	      0.17183311	     24.29107797	    -19.80959744	     -8.34320390	     67.29946460	      1.17459724	     -3.64638807	    -10.04971727	      0.00000000	     -0.46341391	     10.60506234	    -21.93068643	      7.07541965	      0.12348937	      1.47229242	      9.26121405	      0.00000000	     -0.26216108	    -12.10446801	      3.71923735	     44.46887195	    -15.63274461	     44.46887195	     75.05381118	     44.99307693	      0.00000000	      0.00000000	     44.46887195	    -15.63274461	     44.46887195	     75.05381118	     44.99307693	      0.00000000	      0.00000000
      0.89500000	      0.34483292	      9.32006333	     -2.06471962	      0.62044433	      0.93948982	      0.17142360	     24.79864748	    -19.41721490	     -8.48535628	     66.35177446	      1.15805693	     -3.04197227	     -9.67433353	      0.00000000	     -1.00263673	     10.51183151	    -21.76377135	      6.80123387	      0.11870392	      1.49027868	      9.70624887	      0.00000000	     -0.28355086	    -11.95681151	      3.60436866	     44.46944665	    -15.63161314	     44.46944665	     75.05362339	     44.99314404	      0.00000000	      0.00000000	     44.46944665	    -15.63161314	     44.46944665	     75.05362339	     44.99314404	      0.00000000	      0.00000000
      0.90000000	      0.26546282	      9.39390910	     -1.79826323	      0.62647021	      0.93970692	      0.17110383	     25.41156724	    -19.25072404	     -8.57153046	     65.42497579	      1.14188124	     -2.72397658	     -9.54627645	      0.00000000	     -1.40600555	     10.59223906	    -21.66674428	      6.72839025	      0.11743256	      1.53678179	      9.93041631	      0.00000000	     -0.28784469	    -11.99963749	      3.62749805	     44.46957751	    -15.63135565	     44.46957751	     75.05358071	     44.99315923	      0.00000000	      0.00000000	     44.46957751	    -15.63135565	     44.46957751	     75.05358071	     44.99315923	      0.00000000	      0.00000000
      0.90500000	      0.15591302	      9.42862954	     -1.51838927	      0.63257199	      0.93985318	      0.17070265	     25.97658091	    -19.03368974	     -8.64798750	     64.37653925	      1.12358257	     -2.32440860	     -9.32981344	      0.00000000	     -1.81564026	     10.64142538	    -21.52812467	      6.58313132	      0.11489732	      1.58549647	     10.24019584	      0.00000000	     -0.24711293	    -11.99430617	      3.63115108	     44.46970127	    -15.63111219	     44.46970127	     75.05354036	     44.99317356	      0.00000000	      0.00000000	     44.46970127	    -15.63111219	     44.46970127	     75.05354036	     44.99317356	      0.00000000	      0.00000000
      0.91000000	      1.06182066	      7.96991025	     -0.58614829	      0.63896592	      0.94292771	      0.16825113	     24.22784976	    -17.61858377	    -10.39012784	     62.16100281	      1.08491417	     -1.84511827	     -8.69980684	      0.00000000	     -3.64660968	      9.19735189	    -20.36061340	      5.98176682	      0.10440153	      1.59843797	     10.85693071	      0.00000000	     -1.72078345	    -10.18688618	      2.08678652	     44.47230966	    -15.62598786	     44.47230966	     75.05269436	     44.99347011	      0.00000000	      0.00000000	     44.47230966	    -15.62598786	     44.47230966	     75.05269436	     44.99347011	      0.00000000	      0.00000000
      0.91500000	      0.99569477	      7.89994710	     -0.32908988	      0.64512897	      0.94302160	      0.16786768	     24.65357787	    -17.30509213	    -10.51670526	     60.95602464	      1.06388333	     -1.38089768	     -8.31791921	      0.00000000	     -4.13064350	      9.12617648	    -20.15880125	      5.76152321	      0.10055755	      1.62577732	     11.20843799	      0.00000000	     -1.70228169	    -10.14096115	      1.88443475	     44.47296329	    -15.62470649	     44.47296329	     75.05248389	     44.99354253	      0.00000000	      0.00000000	     44.47296329	    -15.62470649	     44.47296329	     75.05248389	     44.99354253	      0.00000000	      0.00000000
      0.92000000	      0.87777994	      8.04741538	     -0.04606285	      0.65120610	      0.94289559	      0.16758064	     25.19059807	    -17.24372203	    -10.58583927	     59.77475052	      1.04326621	     -1.13984915	     -8.18346917	      0.00000000	     -4.47547840	      9.25858565	    -20.01505210	      5.71537238	      0.09975207	      1.69851552	     11.41497590	      0.00000000	     -1.64633761	    -10.27553180	      1.94272609	     44.47311406	    -15.62441111	     44.47311406	     75.05243544	     44.99355912	      0.00000000	      0.00000000	     44.47311406	    -15.62441111	     44.47311406	     75.05243544	     44.99355912	      0.00000000	      0.00000000
      0.92500000	      1.46968232	      7.11725174	      0.72415156	      0.65747307	      0.94476441	      0.16567813	     24.10405176	    -16.27965758	    -11.80997743	     57.67225110	      1.00657067	     -0.92483725	     -7.79665609	      0.00000000	     -5.80435090	      8.28891998	    -19.11274223	      5.28735169	      0.09228170	      1.69550250	     11.72990677	      0.00000000	     -2.59407507	     -9.10275166	      0.78359191	     44.47548081	    -15.61978067	     44.47548081	     75.05167860	     44.99381492	      0.00000000	      0.00000000	     44.47548081	    -15.61978067	     44.47548081	     75.05167860	     44.99381492	      0.00000000	      0.00000000
      0.93000000	      1.56888911	      6.88230685	      1.18015483	      0.66362841	      0.94516031	      0.16478697	     24.05843784	    -15.89974579	    -12.27220089	     56.05879202	      0.97841050	     -0.73001878	     -7.58625893	      0.00000000	     -6.46010885	      8.02265602	    -18.66218688	      5.08071982	      0.08867529	      1.71932381	     11.95200320	      0.00000000	     -2.83970340	     -8.83349620	      0.25428242	     44.47775290	    -15.61534820	     44.47775290	     75.05095917	     44.99405198	      0.00000000	      0.00000000	     44.47775290	    -15.61534820	     44.47775290	     75.05095917	     44.99405198	      0.00000000	      0.00000000
      0.93500000	      1.39454401	      7.11166042	      1.42278758	      0.66978256	      0.94466188	      0.16453952	     24.61193192	    -15.95409295	    -12.29194902	     54.77245417	      0.95595966	     -0.51500478	     -7.45543243	      0.00000000	     -6.74239037	      8.23642435	    -18.54581482	      5.04287746	      0.08801482	      1.84287657	     12.13143211	      0.00000000	     -2.68106848	     -9.03602786	      0.36359348	     44.47789594	    -15.61506963	     44.47789594	     75.05091413	     44.99406662	      0.00000000	      0.00000000	     44.47789594	    -15.61506963	     44.47789594	     75.05091413	     44.99406662	      0.00000000	      0.00000000
      0.94000000	      1.63681765	      6.66450252	      1.87633972	      0.67599686	      0.94529167	      0.16353464	     24.22614510	    -15.33227506	    -12.83894991	     52.85956768	      0.92257350	     -0.24370740	     -7.04142208	      0.00000000	     -7.60396822	      7.74087838	    -18.02692020	      4.71550344	      0.08230106	      1.87804433	     12.42906291	      0.00000000	     -3.10325292	     -8.39448793	     -0.10489948	     44.47935120	    -15.61223743	     44.47935120	     75.05045710	     44.99421408	      0.00000000	      0.00000000	     44.47935120	    -15.61223743	     44.47935120	     75.05045710	     44.99421408	      0.00000000	      0.00000000
      0.94500000	      1.69532846	      6.45980314	      2.33352572	      0.68218543	      0.94538602	      0.16259188	     24.15610273	    -15.00375099	    -13.30008825	     51.08950814	      0.89168013	     -0.21573235	     -7.01632586	      0.00000000	     -8.18930846	      7.49150090	    -17.59879121	      4.54987721	      0.07941034	      1.96517261	     12.54332450	      0.00000000	     -3.27731166	     -8.08944460	     -0.57014836	     44.48082623	    -15.60937217	     44.48082623	     75.04999685	     44.99436012	      0.00000000	      0.00000000	     44.48082623	    -15.60937217	     44.48082623	     75.04999685	     44.99436012	      0.00000000	      0.00000000
      0.95000000	      1.51009867	      6.75787643	      2.58959595	      0.68838020	      0.94460534	      0.16224397	     24.65137893	    -15.20501763	    -13.38472051	     49.72076695	      0.86779109	     -0.05439720	     -6.94463776	      0.00000000	     -8.45502939	      7.77215625	    -17.50563416	      4.53308004	      0.07911717	      2.09313430	     12.69718087	      0.00000000	     -3.09869232	     -8.33796961	     -0.44019048	     44.48095132	    -15.60912951	     44.48095132	     75.04995798	     44.99437232	      0.00000000	      0.00000000	     44.48095132	    -15.60912951	     44.48095132	     75.04995798	     44.99437232	      0.00000000	      0.00000000
      0.95500000	      1.81752009	      6.21154194	      3.17464555	      0.69448801	      0.94530470	      0.16088962	     24.00365384	    -14.52479496	    -14.14122261	     47.47484863	      0.82859242	     -0.16349071	     -6.89395684	      0.00000000	     -9.33370414	      7.13331909	    -16.82431559	      4.27216100	      0.07456328	      2.11750547	     12.85896747	      0.00000000	     -3.63732982	     -7.61476225	     -1.25342744	     44.48325084	    -15.60467396	     44.48325084	     75.04924667	     44.99459304	      0.00000000	      0.00000000	     44.48325084	    -15.60467396	     44.48325084	     75.04924667	     44.99459304	      0.00000000	      0.00000000
